<svg width="64" height="368" viewBox="0 0 64 368" fill="none" xmlns="http://www.w3.org/2000/svg">
<path d="M22.25 7.25C24.0833 7.25 25.5833 8 26.75 9.5C27.4167 10.1667 27.5 10.8333 27 11.5C26.1667 12.6667 25.1667 13.75 24 14.75L25.75 15L29 14.75C30.8333 15.0833 31.9167 15.8333 32.25 17C31.0833 19.3333 29.4167 21.25 27.25 22.75C24.5833 24.5833 20.75 25.5 15.75 25.5C20.4167 23.6667 23.8333 21 26 17.5C24.6667 16.6667 23.4167 16.25 22.25 16.25C20.75 17.0833 19.4167 17.75 18.25 18.25C17.4167 18.75 16.4167 18.9167 15.25 18.75C13.9167 18.5833 12.9167 18.25 12.25 17.75C15.25 16.4167 17.8333 14.1667 20 11L19.75 9.5C19.4167 9 18.9167 8.58333 18.25 8.25C19.0833 7.41667 20.4167 7.08333 22.25 7.25ZM40 8.25C40.1667 8.58333 40.4167 9 40.75 9.5L44.5 8.5C45.6667 7.66667 45.75 7.83333 44.75 9L40.25 13.5L38.75 14.5C36.9167 14.8333 36.0833 13.75 36.25 11.25C36.25 10.4167 37 9.08333 38.5 7.25C39 7.08333 39.3333 7.08333 39.5 7.25L40 8.25ZM51 7.5C52.1667 7.5 53.0833 7.66667 53.75 8C54.9167 8.5 55.9167 9.25 56.75 10.25C57.5833 11.0833 57.5833 11.9167 56.75 12.75C54.0833 15.4167 50.25 17.9167 45.25 20.25C47.25 20.0833 49 19.8333 50.5 19.5C52.1667 19.6667 53.0833 20.25 53.25 21.25C52.9167 22.0833 51.4167 22.75 48.75 23.25C48.75 24.75 48.6667 26 48.5 27C49.5 27 50.5 27.1667 51.5 27.5C52.3333 28.1667 52.1667 28.8333 51 29.5C50.5 29.8333 49.5833 30.5833 48.25 31.75C48.25 33.0833 48.1667 34.5 48 36C49.8333 35.8333 51.5 35.4167 53 34.75C57.3333 34.75 59.6667 35.5 60 37C60.1667 37.8333 59.9167 38.4167 59.25 38.75L57.5 39C55.8333 39 54 39.0833 52 39.25C50.6667 39.25 49.4167 39.4167 48.25 39.75C48.0833 43.4167 47.8333 49.5833 47.5 58.25L46.5 59.75C45.1667 59.75 44.1667 58.9167 43.5 57.25C43.3333 51.9167 43.3333 47.3333 43.5 43.5V40.25L37.5 41.5C35 42 33.5 42.1667 33 42C32.5 41.5 32 40.75 31.5 39.75C31.8333 38.9167 33.5833 37.75 36.75 36.25C39.75 34.75 42.1667 33.1667 44 31.5H39.75L38 30.75C37 30.25 36.25 29.5833 35.75 28.75C37.75 28.5833 40.5 28.1667 44 27.5C43.8333 26 43.9167 24.6667 44.25 23.5C42.5833 23.5 41 23.3333 39.5 23C38.3333 21.6667 38.0833 20.25 38.75 18.75C39.25 17.9167 40.5 17.5833 42.5 17.75C44.5 16.9167 47.1667 15.1667 50.5 12.5L52.25 10.75C51.4167 9.75 50.5 9 49.5 8.5C48.6667 8.33333 47.5 8.25 46 8.25V8C48.3333 7.66667 50 7.5 51 7.5ZM26 25.25C27.5 25.25 28.75 25.5833 29.75 26.25C30.75 26.75 31.25 27.6667 31.25 29C30.9167 33 30 36.5 28.5 39.5C27.8333 40.5 26.9167 41 25.75 41L24.75 40.75C24.0833 39.9167 23.6667 39.25 23.5 38.75L17.75 40C12.75 38.8333 10.3333 35.5833 10.5 30.25C10.5 28.9167 10.8333 27.75 11.5 26.75C13.5 28.4167 14.8333 30.1667 15.5 32C16.6667 31.8333 17.9167 31.3333 19.25 30.5C19.4167 29.8333 19.4167 29.1667 19.25 28.5C18.4167 28.8333 17.9167 28.9167 17.75 28.75C18.5833 27.4167 19.8333 26.5 21.5 26C23 25.5 24.5 25.25 26 25.25ZM22.5 29.75C23.8333 29.75 24.9167 30.25 25.75 31.25C24.9167 32.0833 23.9167 32.4167 22.75 32.25C22.5833 32.9167 22.5833 33.8333 22.75 35C23.75 35.1667 24.6667 35.3333 25.5 35.5C26.1667 32.5 26.75 29.75 27.25 27.25C25.9167 27.25 24.3333 27.5 22.5 28V29.75ZM17.25 36.25C17.75 35.9167 18.4167 35.6667 19.25 35.5C19.25 34.6667 19.25 34 19.25 33.5C18.25 33.5 17.3333 33.5833 16.5 33.75L17.25 36.25ZM41.25 35.5C40.25 36.3333 39.5833 36.9167 39.25 37.25C40.75 37.25 42.1667 37.0833 43.5 36.75C43.5 36.25 43.5833 35.3333 43.75 34C43.0833 34.3333 42.25 34.8333 41.25 35.5ZM29.5 40C29.6667 40 29.75 40.25 29.75 40.75C28.9167 41.75 26.75 43.75 23.25 46.75C19.75 49.75 15.8333 51.5 11.5 52L8.25 51.25C6.08333 49.75 5 48.5 5 47.5C5 46.8333 5.5 46.25 6.5 45.75C7.5 45.25 8.5 45.3333 9.5 46C10.1667 46 10.6667 46.4167 11 47.25C17.5 45.25 21.6667 43.8333 23.5 43C25.3333 42.3333 27.3333 41.3333 29.5 40ZM33 68.25C33.3333 68.25 34.3333 68.5 36 69C37.5 69.3333 38.5833 70.1667 39.25 71.5C39.5833 72.1667 39.5833 73.0833 39.25 74.25C38.0833 74.5833 37.0833 74.8333 36.25 75H33.5C31.3333 75 30.25 74.5 30.25 73.5C31.0833 73 31 72.5 30 72C28 70.8333 26.8333 70.0833 26.5 69.75C26.6667 69.25 27.0833 68.9167 27.75 68.75C28.25 68.4167 29.0833 68.25 30.25 68.25H33ZM43 74.5C44.1667 74.5 45.25 74.6667 46.25 75C47.0833 75.3333 47.5833 75.5833 47.75 75.75C48.0833 76.25 48 76.75 47.5 77.25L45.75 78.25C39.25 80.9167 34.9167 82.5 32.75 83C31.4167 84.1667 30.5833 84.9167 30.25 85.25C31.75 86.75 32.6667 88 33 89C35.5 88.1667 37.5 87.6667 39 87.5C39.5 86.6667 39.8333 85.5833 40 84.25L39.75 83.5C39.5833 82.8333 38.8333 82.5833 37.5 82.75C37.8333 82.25 38.4167 81.9167 39.25 81.75C41.9167 81.75 43.8333 83.1667 45 86C46.3333 85.6667 47.5833 85.5833 48.75 85.75C50.4167 86.0833 51.5833 86.5833 52.25 87.25C52.5833 87.5833 52.5833 88.0833 52.25 88.75C50.4167 89.4167 48.3333 90 46 90.5C45.3333 90.6667 44.6667 90.8333 44 91C43.6667 91.8333 43.25 92.6667 42.75 93.5C43.25 93.5 43.6667 93.5 44 93.5C44.5 93.5 45 93.75 45.5 94.25C46 95.0833 46.1667 95.6667 46 96C44.1667 96.8333 42.4167 97.5833 40.75 98.25C39.9167 98.75 39.25 99.3333 38.75 100C40.75 99.5 42.5833 99.6667 44.25 100.5C44.9167 100.667 45.5 101 46 101.5C46.5 102.167 46.75 102.833 46.75 103.5C46.75 104.833 46.5833 105.833 46.25 106.5C45.25 108.333 44.0833 109.917 42.75 111.25L45.75 112.75C49.25 114.583 51.6667 116 53 117C54.3333 117.667 55.4167 118.75 56.25 120.25C56.9167 121.75 57.0833 122.917 56.75 123.75H55.5C51 121.75 47.25 119.75 44.25 117.75C41.9167 116.417 40.0833 115.333 38.75 114.5C36.4167 116 34.5833 116.917 33.25 117.25C31.5833 117.75 30.1667 118 29 118C26.6667 118 24.25 117.833 21.75 117.5C18.25 116.833 15.9167 115.167 14.75 112.5C15.0833 112.833 15.3333 113.083 15.5 113.25C16.5 114.083 17.5 114.667 18.5 115L19.25 115.25C21.75 115.417 24.1667 115.417 26.5 115.25C28.3333 114.917 29.6667 114.583 30.5 114.25C31.8333 113.583 33.1667 112.75 34.5 111.75C32.3333 110.583 29.9167 109.417 27.25 108.25C24.9167 107.25 22.25 106.667 19.25 106.5C18.5833 106.5 17.5 106.583 16 106.75C17 106.417 18.0833 106.083 19.25 105.75C22.9167 104.75 25.75 104.25 27.75 104.25C29.25 103.083 30.8333 102.083 32.5 101.25C33.1667 100.417 33.75 99.75 34.25 99.25C32.25 99.75 30.6667 100 29.5 100C28.8333 100 28 99.75 27 99.25C25.8333 98.5833 25.25 97.75 25.25 96.75C25.5833 97.0833 26.25 97.1667 27.25 97L28.25 96.75C28.25 95.75 28 94.6667 27.5 93.5C26.5 93.3333 25.5833 92.9167 24.75 92.25C22.25 95.9167 19.25 100.5 15.75 106C15.4167 106.333 15.0833 106.75 14.75 107.25L11.25 113.25C11.0833 113.75 10.9167 114.333 10.75 115L10.5 116.25C9.66667 118.083 8.33333 118.25 6.5 116.75C5 115.25 4.16667 113.75 4 112.25C4.16667 110.75 4.66667 109.583 5.5 108.75C6 109.917 6.75 110 7.75 109C18.9167 95 25.5 86.5 27.5 83.5C24.8333 84.1667 22.75 84.25 21.25 83.75C19.4167 83.0833 17.3333 81.4167 15 78.75C14.1667 77.5833 13.9167 77 14.25 77C15.75 77.3333 17 77.6667 18 78C18.8333 78.3333 20.3333 78.5833 22.5 78.75C27.5 78.25 33.4167 77 40.25 75L43 74.5ZM25.25 91.5C25.9167 91.5 26.5833 91.3333 27.25 91C27.5833 90 27.5833 89.25 27.25 88.75L25.25 91.5ZM37.5 92C35.8333 92.1667 34.4167 92.4167 33.25 92.75C33.25 93.4167 33.1667 94.3333 33 95.5C34 95.3333 35 95 36 94.5C36.8333 93.3333 37.3333 92.5 37.5 92ZM41.5 103C38.6667 103.5 36.6667 104 35.5 104.5C34.5 104.833 33.5 105.417 32.5 106.25C34.5 106.917 36.5 107.75 38.5 108.75C39.6667 107.75 40.75 106.333 41.75 104.5C42.0833 103.833 42 103.333 41.5 103Z" fill="white"/>
<path d="M32.25 156.25C35.9167 156.25 37.6667 157.75 37.5 160.75C37 162.583 36.5833 164.333 36.25 166C36.25 167.333 36.1667 168.583 36 169.75C38.3333 168.083 39.4167 166.917 39.25 166.25L37.75 163.5C40.25 163.5 42.1667 163.667 43.5 164C44.5 164.167 45.75 165.25 47.25 167.25C47.75 168.583 47.8333 169.417 47.5 169.75C46 170.25 44.5833 170.833 43.25 171.5C41.4167 172.5 38.6667 174.5 35 177.5C35.5 177.667 36.25 177.667 37.25 177.5C37.25 177 37.1667 176.583 37 176.25C39 176.083 40.6667 176.167 42 176.5C43.3333 176.667 44.6667 177.083 46 177.75C47 178.25 47.3333 178.917 47 179.75L46.25 181.5C44.75 182 42.4167 182.417 39.25 182.75C37.75 182.917 36.3333 183.167 35 183.5C34.8333 185.333 34.75 187.417 34.75 189.75C36.75 189.917 38.6667 190.25 40.5 190.75C41.8333 191.083 44.25 191.75 47.75 192.75C50.4167 193.583 52.5 194.75 54 196.25C55 197.083 55.8333 198.167 56.5 199.5C56.8333 200.167 56.8333 200.667 56.5 201C56.1667 201.5 55.1667 201.833 53.5 202H51.75C50.0833 202 49 201.833 48.5 201.5C48 201.167 47.6667 200.833 47.5 200.5C48.3333 200.167 49.0833 199.833 49.75 199.5C48.25 198.5 46.1667 197.583 43.5 196.75C40.3333 195.75 37.3333 194.917 34.5 194.25C34.6667 194.75 34.6667 195.583 34.5 196.75C34.8333 198.25 35.0833 199.667 35.25 201V205.5C35.25 208.667 34.4167 210.083 32.75 209.75C30.4167 208.583 28.75 207.25 27.75 205.75C27.5833 205.417 27.6667 204.833 28 204C28.1667 203.333 28.4167 202.333 28.75 201C29.0833 199.5 29.25 197.833 29.25 196L29 192.75C27.1667 192.25 25.6667 192.083 24.5 192.25L13.25 201.5L11.5 201.75C10.1667 201.083 9.41667 200.417 9.25 199.75C9.08333 199.25 9.08333 198.75 9.25 198.25C10.25 197.417 11.6667 196.25 13.5 194.75C19.3333 190.25 22.8333 187.083 24 185.25C21.5 185.917 19.1667 186.417 17 186.75C16.3333 186.75 15.25 185.833 13.75 184C13.0833 183.333 13.25 182.583 14.25 181.75L16.75 180.25C19.25 179.583 21.8333 178.667 24.5 177.5C26 176.5 28 175.167 30.5 173.5L31 165.5C31.1667 163.833 31.25 162.167 31.25 160.5L29.75 159.25C29.4167 159.083 29 158.833 28.5 158.5C28.1667 158 28.1667 157.667 28.5 157.5C29.3333 156.667 30.5833 156.25 32.25 156.25ZM21.25 165C22.25 166.667 22.8333 167.917 23 168.75L26 168C27 167.667 28 167.167 29 166.5L25 170.75C23.3333 172.417 22.3333 173.583 22 174.25C20.5 175.083 19.1667 174.833 18 173.5C16.6667 172 16 170.75 16 169.75C16.3333 168.083 17.3333 166.417 19 164.75C19.3333 164.25 19.6667 163.667 20 163L21.25 165ZM27.75 189.25C28.25 189.25 28.75 189.25 29.25 189.25C29.25 188.75 29.25 188.25 29.25 187.75C28.75 188.25 28.25 188.75 27.75 189.25Z" fill="white"/>
<path d="M38.75 244.5C40.4167 244.5 41.75 244.917 42.75 245.75C43.5833 246.583 44 247.667 44 249C43.8333 251.667 43.6667 253.417 43.5 254.25C45.5 253.583 47 253.333 48 253.5C48.6667 253.5 49.3333 253.75 50 254.25C50.6667 254.583 51 255 51 255.5C51 256.167 49.6667 257.417 47 259.25C45 260.583 43.5 261.417 42.5 261.75C42.3333 263.083 42.1667 264.167 42 265C45.8333 264.333 48.4167 264.583 49.75 265.75C50.9167 266.417 51.5 267.333 51.5 268.5C51.5 269.5 51.0833 271 50.25 273C49.5833 274.5 48.5 276.417 47 278.75C48.6667 281.083 51.8333 283.417 56.5 285.75C61.1667 287.917 63.5 289.333 63.5 290C63.5 290.833 63.0833 291.333 62.25 291.5C56.9167 291.667 51.8333 289.833 47 286C45.1667 284.5 43.75 283.333 42.75 282.5C39.75 284 37.5833 284.917 36.25 285.25C34.4167 285.75 32.75 286 31.25 286C28.5833 285.667 26.5 285 25 284L22.75 283V288C21.9167 289.667 21 290.417 20 290.25C18.5 289.917 16.75 288.167 14.75 285C12.9167 282.833 11.5 281.25 10.5 280.25C9.33333 281.25 8.41667 281.583 7.75 281.25C5.75 280.25 4.75 278.833 4.75 277C4.75 275.833 5.33333 275.333 6.5 275.5C7.16667 275.667 7.83333 275.75 8.5 275.75C11.3333 273.917 13.9167 272.083 16.25 270.25C16.9167 269.583 17.5 269.083 18 268.75C18.1667 267.417 18.25 265.833 18.25 264C17.25 264.333 16.1667 264.583 15 264.75C12.6667 265.083 9.91667 263.833 6.75 261L7 260.75C8.83333 260.583 10.25 260.5 11.25 260.5C12.5833 260.5 13.75 260.333 14.75 260C16.4167 259.5 17.8333 258.75 19 257.75C19.6667 253.583 19.9167 250.833 19.75 249.5C19.0833 248.833 18.5 248.583 18 248.75C17.3333 247.75 16.8333 247 16.5 246.5C17.8333 245.833 18.8333 245.5 19.5 245.5L22 245.75L24.25 247C24.9167 247.667 25.25 248.75 25.25 250.25C24.9167 251.917 24.5 253.917 24 256.25C24.8333 256.417 25.75 256.917 26.75 257.75C26.9167 258.25 27 258.75 27 259.25C26.3333 260.583 25.0833 261.667 23.25 262.5C23.0833 263.167 23 263.917 23 264.75L25.25 262.75C25.0833 263.583 24.8333 264.25 24.5 264.75C24 266.583 23.3333 268.333 22.5 270C22.5 276.833 22.5 280.667 22.5 281.5C24.5 282.333 26.75 282.75 29.25 282.75C30.5833 282.75 32.1667 282.333 34 281.5C35.8333 280.667 37.5 279.75 39 278.75C35.6667 276.083 30.75 274.583 24.25 274.25C24.0833 274.083 24.3333 273.833 25 273.5L31 272C35 272.5 38.75 273.667 42.25 275.5C44.4167 273 45.6667 270.5 46 268L45.5 267C43.3333 268 40.9167 269.167 38.25 270.5L37 271C36.3333 271 35.75 270.333 35.25 269C34.75 267.667 34.75 266.667 35.25 266C36.5833 265.333 37.25 263.75 37.25 261.25C35.5833 260.917 34.1667 260.083 33 258.75C34.6667 258.25 36.3333 257.583 38 256.75L38.25 252.75C38.5833 249.917 37.9167 248.667 36.25 249C35.5833 249.167 35.0833 249.083 34.75 248.75C33.9167 248.25 33.75 247.75 34.25 247.25C35.5833 245.417 37.0833 244.5 38.75 244.5ZM17.5 274.75C15.1667 276.417 13.3333 277.917 12 279.25C12.6667 280.25 13.75 281.333 15.25 282.5C16.4167 283.167 17.1667 283.083 17.5 282.25C17.6667 281.25 17.75 280 17.75 278.5C17.75 277 17.6667 275.75 17.5 274.75ZM18.5 308.25C19.8333 308.083 21.3333 309 23 311C23.5 311.5 23.5833 312.167 23.25 313C21.4167 314.667 18.9167 316 15.75 317C12.5833 317.833 9.83333 318.333 7.5 318.5C8 318.167 8.75 317.667 9.75 317C12.9167 314.167 14.6667 311.75 15 309.75C15.6667 308.75 16.8333 308.25 18.5 308.25ZM29.5 308.25C31.6667 308.75 33.1667 310.083 34 312.25C33.8333 314.25 33.5833 316.083 33.25 317.75C33.0833 319.083 33 320.583 33 322.25C35.1667 321.417 37.0833 322 38.75 324C39.5833 324 40.5 323.833 41.5 323.5C45 319.667 47.25 316.917 48.25 315.25C44.75 315.25 42.3333 313.25 41 309.25C41.5 309.25 42.0833 309.5 42.75 310L44 310.5H46.25C47.9167 310.5 49.8333 310.083 52 309.25C53.6667 309.75 54.6667 310.5 55 311.5C52.1667 315.667 48.8333 319.583 45 323.25C47.5 323.083 50.5833 322.833 54.25 322.5C55.9167 321.667 58 321.917 60.5 323.25C61.3333 324.75 61.0833 325.833 59.75 326.5C57.5833 326.167 54.9167 325.833 51.75 325.5L47.5 325.75C50.5 327.25 51.9167 329.75 51.75 333.25L52 341.75L51.75 350.75C51.75 352.583 51.3333 354.167 50.5 355.5C49.6667 356.833 48.5833 357.5 47.25 357.5C44.25 357.667 40.4167 355.25 35.75 350.25C35.4167 349.917 35.1667 349.417 35 348.75C36.8333 350.25 38.8333 351.167 41 351.5C42.3333 351.667 43.4167 351.417 44.25 350.75C46.9167 348.75 47.75 342.083 46.75 330.75C46.25 328.75 45 327.333 43 326.5C41.6667 326.833 40.5833 327.25 39.75 327.75C38.75 326.583 38.25 325.583 38.25 324.75C37.0833 325.583 35.5833 326.25 33.75 326.75C34.25 327.417 33.75 328.25 32.25 329.25V336.5C35.9167 336.167 38.9167 337.667 41.25 341C41.75 341.833 41.4167 342.333 40.25 342.5C39.0833 342.5 37.8333 342.333 36.5 342C35 341.333 33.5833 340.667 32.25 340C32.5833 343.667 32.6667 346.25 32.5 347.75C32.6667 350.75 31.9167 352.417 30.25 352.75C28.9167 352.917 27.9167 351.917 27.25 349.75C26.4167 348.083 25.6667 346.167 25 344C25.8333 344.667 26.6667 345.167 27.5 345.5C27.8333 344 28.1667 341.917 28.5 339.25C26.8333 338.75 24.9167 338.5 22.75 338.5C21.25 340 19.9167 340.667 18.75 340.5C17.5833 338.667 17.4167 337.583 18.25 337.25C19.25 336.917 22.3333 333.917 27.5 328.25C24.8333 329.583 22.5833 328 20.75 323.5C20.9167 322.667 21.25 322.667 21.75 323.5C23.0833 325 25.5 325 29 323.5V321.25C28.8333 318.25 28.6667 315.417 28.5 312.75C27.8333 311.25 27.5 310.25 27.5 309.75C27.3333 309.583 27.25 309.25 27.25 308.75L29.5 308.25ZM39 313.75C42.3333 315.083 43.75 316.25 43.25 317.25C43.0833 317.917 42.5833 318.417 41.75 318.75C40.25 318.917 39 319 38 319L36.75 318.5C36.4167 318.167 36.1667 317.833 36 317.5C35.3333 317.667 36 317.333 38 316.5C36.8333 315.667 35.8333 315 35 314.5C36.1667 313.833 37.5 313.583 39 313.75ZM15.25 319.5C17.5833 321.167 18.75 322.583 18.75 323.75C18.5833 324.75 18 325.5 17 326C16 326.833 14.8333 327.917 13.5 329.25C14.8333 329.417 15.5 330.167 15.5 331.5C15 336.833 14.5833 341.417 14.25 345.25C15.4167 343.917 16.5 342.417 17.5 340.75C17 343.75 16.3333 346.917 15.5 350.25C15.3333 352.083 14.5 353.333 13 354C11.1667 353 10 351.167 9.5 348.5C9.83333 347.333 10.1667 346 10.5 344.5C10.6667 343.5 10.8333 342.417 11 341.25L11.75 336.75C12.25 334.25 12.0833 332.75 11.25 332.25C9.41667 333.583 7.83333 335 6.5 336.5L4.75 337C3.41667 336.333 2.75 335.333 2.75 334C5.08333 330.833 9.25 326.417 15.25 320.75L14 319.5C14.5 319.5 14.9167 319.5 15.25 319.5ZM25 336C26.3333 336 27.5 336.083 28.5 336.25V333.25L25 336Z" fill="white"/>
</svg>
