<svg width="382" height="358" viewBox="0 0 382 358" fill="none" xmlns="http://www.w3.org/2000/svg">
<path d="M84.8047 0.226562C102.383 9.60156 108.828 23.0781 104.141 40.6562C117.031 37.1406 131.094 34.7969 146.328 33.625C160.391 31.2812 171.523 30.6953 179.727 31.8672C191.445 41.2422 197.305 48.8594 197.305 54.7188C197.305 58.2344 192.617 65.2656 183.242 75.8125C176.211 82.8438 156.875 96.9062 125.234 118C141.641 112.141 153.359 112.141 160.391 118C167.422 123.859 172.695 130.305 176.211 137.336C178.555 142.023 179.727 149.641 179.727 160.188C179.727 174.25 177.383 189.484 172.695 205.891C168.008 221.125 162.148 234.016 155.117 244.562C150.43 250.422 146.328 253.352 142.812 253.352C136.953 251.008 131.68 248.078 126.992 244.562C109.414 244.562 82.4609 252.766 46.1328 269.172C48.4766 264.484 52.5781 259.211 58.4375 253.352C54.9219 249.836 50.2344 248.664 44.375 249.836C38.5156 249.836 33.8281 248.664 30.3125 246.32C19.7656 234.602 13.9062 225.812 12.7344 219.953C10.3906 214.094 9.21875 200.617 9.21875 179.523V133.82C17.4219 142.023 24.4531 151.398 30.3125 161.945C32.6562 168.977 35 176.008 37.3438 183.039C46.7188 183.039 56.6797 181.867 67.2266 179.523C67.2266 170.148 66.0547 159.602 63.7109 147.883C42.6172 145.539 30.3125 143.195 26.7969 140.852C36.1719 139.68 48.4766 135.578 63.7109 128.547C94.1797 109.797 118.203 86.9453 135.781 59.9922L132.266 56.4766C112.344 61.1641 95.3516 67.6094 81.2891 75.8125C64.8828 85.1875 49.6484 93.9766 35.5859 102.18C32.0703 105.695 28.5547 104.523 25.0391 98.6641C20.3516 90.4609 17.4219 82.2578 16.25 74.0547L21.5234 67.0234C49.6484 49.4453 66.6406 38.3125 72.5 33.625C81.875 23.0781 85.9766 11.9453 84.8047 0.226562ZM211.367 1.98438C234.805 10.1875 246.523 20.7344 246.523 33.625L244.766 86.3594C277.578 68.7812 299.258 51.2031 309.805 33.625L297.5 26.5938C326.797 26.5938 343.789 33.0391 348.477 45.9297C349.648 50.6172 348.477 54.7188 344.961 58.2344C306.289 81.6719 272.305 96.9062 243.008 103.938C241.836 108.625 241.25 114.484 241.25 121.516C241.25 129.719 243.008 136.164 246.523 140.852C250.039 144.367 257.656 146.125 269.375 146.125C290.469 146.125 305.117 145.539 313.32 144.367C319.18 142.023 325.625 138.508 332.656 133.82V130.305C332.656 117.414 331.484 107.453 329.141 100.422C326.797 92.2188 323.867 84.6016 320.352 77.5703C327.383 77.5703 335 84.6016 343.203 98.6641C354.922 116.242 366.641 133.234 378.359 149.641C380.703 155.5 380.703 159.016 378.359 160.188C371.328 164.875 364.297 168.391 357.266 170.734C349.062 173.078 340.859 174.25 332.656 174.25H272.891C250.625 174.25 234.219 168.391 223.672 156.672C213.125 144.953 207.852 126.789 207.852 102.18C211.367 64.6797 213.125 38.8984 213.125 24.8359V21.3203C210.781 15.4609 205.508 9.60156 197.305 3.74219C200.82 1.39844 205.508 0.8125 211.367 1.98438ZM135.781 135.578C118.203 137.922 102.969 140.852 90.0781 144.367C95.9375 152.57 98.2812 162.531 97.1094 174.25C111.172 170.734 124.062 171.906 135.781 177.766L141.055 146.125C139.883 142.609 138.125 139.094 135.781 135.578ZM301.016 191.828C312.734 190.656 323.867 193.586 334.414 200.617C343.789 206.477 348.477 218.195 348.477 235.773C350.82 252.18 352.578 280.305 353.75 320.148L351.992 346.516L329.141 350.031C293.984 348.859 257.07 347.102 218.398 344.758C203.164 337.727 195.547 328.352 195.547 316.633V309.602C197.891 286.164 200.234 270.93 202.578 263.898C204.922 254.523 206.094 241.047 206.094 223.469C207.266 216.438 206.68 209.992 204.336 204.133C210.195 205.305 215.469 208.82 220.156 214.68C238.906 205.305 265.859 197.688 301.016 191.828ZM132.266 193.586C120.547 198.273 108.828 201.789 97.1094 204.133C94.7656 211.164 92.4219 218.195 90.0781 225.227C104.141 222.883 114.688 221.125 121.719 219.953L132.266 193.586ZM44.375 204.133C45.5469 208.82 46.7188 213.508 47.8906 218.195C53.75 213.508 59.6094 208.234 65.4688 202.375C56.0938 203.547 49.0625 204.133 44.375 204.133ZM221.914 216.438C227.773 229.328 230.703 243.391 230.703 258.625C251.797 253.938 271.719 250.422 290.469 248.078L302.773 251.594C303.945 239.875 304.531 228.156 304.531 216.438H221.914ZM68.9844 214.68C63.125 218.195 56.6797 222.883 49.6484 228.742C54.3359 229.914 60.1953 229.914 67.2266 228.742C67.2266 225.227 67.8125 220.539 68.9844 214.68ZM146.328 269.172C139.297 291.438 123.477 310.773 98.8672 327.18C74.2578 343.586 50.2344 353.547 26.7969 357.062C9.21875 340.656 1.01562 328.938 2.1875 321.906C2.1875 319.562 5.70312 311.359 12.7344 297.297C17.4219 303.156 23.2812 310.188 30.3125 318.391H33.8281C58.4375 312.531 78.9453 305.5 95.3516 297.297C111.758 287.922 128.75 276.203 146.328 262.141C147.5 262.141 147.5 264.484 146.328 269.172ZM232.461 325.422C247.695 326.594 261.758 327.18 274.648 327.18C281.68 327.18 291.055 326.594 302.773 325.422C303.945 310.188 304.531 295.539 304.531 281.477C298.672 280.305 292.812 278.547 286.953 276.203C281.094 280.891 271.133 286.75 257.07 293.781C262.93 285.578 266.445 279.719 267.617 276.203C252.383 275.031 240.664 275.031 232.461 276.203V325.422Z" fill="#C3B8B8" fill-opacity="0.3"/>
</svg>
